<?xml version="1.0" encoding="UTF-8"?>
<svg width="8px" height="5px" viewBox="0 0 8 5" version="1.1" xmlns="http://www.w3.org/2000/svg" xmlns:xlink="http://www.w3.org/1999/xlink">
    <!-- Generator: Sketch 49.1 (51147) - http://www.bohemiancoding.com/sketch -->
    <defs></defs>
    <g id="Style-Guide-2018" stroke="none" stroke-width="1" fill="none" fill-rule="evenodd">
        <g transform="translate(-562.000000, -5370.000000)" fill="#000000" id="4-Buttons-&amp;-Links">
            <g transform="translate(51.000000, 4740.000000)">
                <g id="Dropdown" transform="translate(135.000000, 546.000000)">
                    <g id="Dropdown-Default" transform="translate(0.000000, 35.000000)">
                        <g id="Select-Dropdowns" transform="translate(0.000000, 26.000000)">
                            <path d="M378.586482,28.8405981 C378.847177,28.5799034 379.107872,28.3192086 379.368566,28.0585138 C379.683674,27.7434061 379.998782,27.4282985 380.313889,27.1131908 C380.585954,26.8411261 380.858831,26.5682494 381.130896,26.2961847 C381.262461,26.1646192 381.396463,26.0346778 381.526404,25.9006759 C381.671776,25.755304 381.671776,25.5181611 381.532089,25.3784742 C381.423263,25.2696484 381.31525,25.1616346 381.206424,25.0528088 C380.945729,24.792114 380.685034,24.5314193 380.42434,24.2707245 C380.109232,23.9556168 379.794124,23.6405091 379.479017,23.3254014 C379.206952,23.0533368 378.934075,22.7812722 378.662011,22.5083954 C378.530445,22.3768298 378.400504,22.2428278 378.266502,22.1128865 C378.194222,22.0406067 378.095954,22 378.002558,22 C377.913224,22 377.806022,22.0397945 377.7443,22.1072016 C377.680141,22.177045 377.633038,22.268004 377.637098,22.3654599 C377.641159,22.4621038 377.674457,22.5538749 377.7443,22.6237183 C377.853126,22.7325442 377.96114,22.8405579 378.069965,22.9493837 C378.33066,23.2100785 378.591355,23.4707733 378.85205,23.731468 C379.167157,24.0465757 379.482265,24.3616834 379.797373,24.6767911 C380.069437,24.9488557 380.342314,25.2217325 380.614379,25.4937971 C380.745944,25.6253627 380.875886,25.7601768 381.009888,25.889306 C381.015573,25.7228187 381.015573,25.5506464 381.015573,25.3784742 C380.906747,25.4873001 380.798733,25.5953138 380.689907,25.7041396 C380.429212,25.9648344 380.168518,26.2255292 379.907823,26.4862239 C379.592715,26.8013316 379.277607,27.1164393 378.9625,27.431547 C378.689623,27.7044238 378.417558,27.9764884 378.145494,28.248553 C378.013928,28.3801186 377.879926,28.5100599 377.749985,28.6440619 C377.677705,28.7163417 377.637098,28.8146099 377.637098,28.9080052 C377.637098,28.9973398 377.676893,29.1045414 377.7443,29.1662636 C377.814143,29.2304221 377.905102,29.2775258 378.002558,29.2734651 C378.100014,29.2694045 378.190973,29.2369191 378.260817,29.1662636 C378.369643,29.0574377 378.477656,28.949424 378.586482,28.8405981 Z" id="down-arrow" transform="translate(379.636855, 25.636855) rotate(90.000000) translate(-379.636855, -25.636855) "></path>
                        </g>
                    </g>
                </g>
            </g>
        </g>
    </g>
</svg>
